HIERARCHY
ROOT RootJoint
{
    OFFSET   0.000000   0.000000   0.000000
    CHANNELS 6 Xposition Yposition Zposition Xrotation Yrotation Zrotation
    JOINT pelvis_lowerback
    {
        OFFSET   0.000000   0.093605   0.000000
        CHANNELS 3 Xrotation Yrotation Zrotation
        JOINT lowerback_torso
        {
            OFFSET   0.000000   0.100000   0.000000
            CHANNELS 3 Xrotation Yrotation Zrotation
            JOINT torso_head
            {
                OFFSET   0.000000   0.282350   0.000000
                CHANNELS 3 Xrotation Yrotation Zrotation
                End Site
                {
                    OFFSET   0.000000   0.192650   0.000000
                }
            }
            JOINT rTorso_Clavicle
            {
                OFFSET  -0.001000   0.157500   0.000000
                CHANNELS 3 Xrotation Yrotation Zrotation
                JOINT rShoulder
                {
                    OFFSET  -0.117647   0.000000   0.000000
                    CHANNELS 3 Xrotation Yrotation Zrotation
                    JOINT rElbow
                    {
                        OFFSET  -0.245000   0.000000   0.000000
                        CHANNELS 3 Xrotation Yrotation Zrotation
                        JOINT rWrist
                        {
                            OFFSET  -0.240000   0.000000   0.000000
                            CHANNELS 3 Xrotation Yrotation Zrotation
                            End Site
                            {
                                OFFSET  -0.116353  -0.002500   0.000000
                            }
                        }
                    }
                }
            }
            JOINT lTorso_Clavicle
            {
                OFFSET   0.001000   0.157500   0.000000
                CHANNELS 3 Xrotation Yrotation Zrotation
                JOINT lShoulder
                {
                    OFFSET   0.117647   0.000000   0.000000
                    CHANNELS 3 Xrotation Yrotation Zrotation
                    JOINT lElbow
                    {
                        OFFSET   0.245000   0.000000   0.000000
                        CHANNELS 3 Xrotation Yrotation Zrotation
                        JOINT lWrist
                        {
                            OFFSET   0.240000   0.000000   0.000000
                            CHANNELS 3 Xrotation Yrotation Zrotation
                            End Site
                            {
                                OFFSET   0.116353  -0.002500   0.000000
                            }
                        }
                    }
                }
            }
        }
    }
    JOINT rHip
    {
        OFFSET  -0.100000  -0.051395   0.000000
        CHANNELS 3 Xrotation Yrotation Zrotation
        JOINT rKnee
        {
            OFFSET   0.000000  -0.410000   0.000000
            CHANNELS 3 Xrotation Yrotation Zrotation
            JOINT rAnkle
            {
                OFFSET   0.000000  -0.390000   0.000000
                CHANNELS 3 Xrotation Yrotation Zrotation
                JOINT rToeJoint
                {
                    OFFSET   0.000000  -0.050000   0.130000
                    CHANNELS 3 Xrotation Yrotation Zrotation
                    End Site
                    {
                        OFFSET  -0.010000   0.002000   0.060000
                    }
                }
            }
        }
    }
    JOINT lHip
    {
        OFFSET   0.100000  -0.051395   0.000000
        CHANNELS 3 Xrotation Yrotation Zrotation
        JOINT lKnee
        {
            OFFSET   0.000000  -0.410000   0.000000
            CHANNELS 3 Xrotation Yrotation Zrotation
            JOINT lAnkle
            {
                OFFSET   0.000000  -0.390000   0.000000
                CHANNELS 3 Xrotation Yrotation Zrotation
                JOINT lToeJoint
                {
                    OFFSET   0.000000  -0.050000   0.130000
                    CHANNELS 3 Xrotation Yrotation Zrotation
                    End Site
                    {
                        OFFSET   0.010000   0.002000   0.060000
                    }
                }
            }
        }
    }
}
MOTION
Frames: 15
Frame Time:   0.008333
 -2.475649   0.889778   4.042042 -175.157191 -44.926477 -179.919572   4.921326   5.487239   1.848815   3.809366   5.167932   4.809001   1.001671  -1.761038   2.157084  -1.477622   6.288388  -0.185388 -12.294461  16.985787  46.768008 179.995360  82.549188 179.995788   2.064306   5.417393 -11.424759  10.157568   7.679656   3.492032  32.432947  -4.503373 -45.632204  -0.191424 -88.305171  -0.187370   3.947404  -2.989021   4.677906   1.379482  -1.603572  -1.961887  26.954344   0.009704  -0.003874 -19.205035  -2.823188   0.925476  -5.929197  -0.004294   0.001704 -18.682997  -5.975832   9.030692  26.708190  -0.009754   0.015636  -4.803527   5.421487   1.123180  -0.978858   0.002162  -0.002048
 -2.480833   0.891127   4.043020 -175.364504 -44.970823 -179.249941   4.783616   5.441114   1.513306   3.806939   5.095696   4.529627   0.961562  -1.543684   1.997592  -1.240945   6.084876  -0.151621 -11.375638  16.751737  47.266891 -179.992887  83.308562 179.979217   2.168252   5.771711 -11.482642   9.984646   7.512419   3.487555  31.533560  -4.683056 -45.653876  -0.337607 -88.759640  -0.333500   3.879333  -2.820450   4.714426   0.341169  -1.533092  -3.176418  29.141751   0.014719  -0.005347 -18.930360  -2.997899   1.028061  -6.128296  -0.004100   0.001564 -18.246305  -5.612801   7.925369  25.723951  -0.011172   0.013430  -4.422313   5.512282   1.208656  -0.738787   0.002308  -0.001657
 -2.485990   0.892360   4.043973 -175.473429 -45.165965 -178.516972   4.665306   5.318557   1.229762   3.822848   4.945387   4.249443   0.920860  -1.330632   1.825848  -0.921270   5.831511  -0.090451 -10.417041  16.483041  47.732998 -179.980951  84.086689 179.963055   2.202442   5.781891 -11.438884   9.745434   7.294008   3.459704  30.612037  -4.897024 -45.680835  -0.643148 -89.220463  -0.638887   3.823212  -2.814092   4.915174  -0.698490  -1.433966  -4.353771  31.392827   0.019632  -0.004339 -18.633223  -3.150572   1.124003  -5.919793  -0.002612   0.001282 -17.753713  -5.326938   6.801610  24.711941  -0.012484   0.010801  -4.020927   5.508196   1.287583  -0.517218   0.002407  -0.001342
 -2.491090   0.893428   4.044841 -175.521487 -45.419467 -177.776409   4.546059   5.150563   0.987204   3.841812   4.744417   3.998549   0.881518  -1.129943   1.663040  -0.574832   5.556721  -0.010568  -9.474558  16.213034  48.175144 -179.972781  84.834375 179.951835   2.202281   5.627295 -11.337164   9.493174   7.058009   3.416638  29.720790  -5.120483 -45.712624  -1.657294 -89.664682  -1.652786   3.777159  -2.910802   5.161586  -1.682484  -1.304026  -5.456955  33.573629   0.023296  -0.002664 -18.325487  -3.279161   1.214361  -5.355909  -0.000373   0.001447 -17.243854  -5.090618   5.711729  23.745048  -0.013296   0.008232  -3.645902   5.455194   1.357055  -0.313930   0.002445  -0.001089
 -2.496096   0.894332   4.045644 -175.529237 -45.667803 -177.044885   4.426883   4.961817   0.777539   3.856347   4.521033   3.775710   0.842901  -0.942128   1.511647  -0.228106   5.279163   0.077397  -8.571334  15.953938  48.593582 -179.969276  85.541048 179.946430   2.188456   5.409085 -11.215794   9.244709   6.820765   3.365976  28.874480  -5.340977 -45.747653 -173.231021 -89.913746 -173.226208   3.737336  -3.053670   5.413230  -2.621983  -1.161463  -6.503342  35.618447   0.025361  -0.001853 -18.022442  -3.412001   1.292053  -4.675347   0.001757   0.001425 -16.729717  -4.878202   4.670038  22.842753  -0.013586   0.006062  -3.310117   5.389354   1.417126  -0.127520   0.002427  -0.000885
 -2.500976   0.895087   4.046383 -175.504152 -45.893083 -176.327974   4.310127   4.760661   0.595510   3.865696   4.287474   3.578651   0.805383  -0.766892   1.371762   0.107280   5.007186   0.167434  -7.716035  15.709979  48.988212 -179.970444  86.204463 179.946663   2.169851   5.170704 -11.093533   9.005821   6.588664   3.313611  28.076613  -5.552804 -45.783407 -178.780255 -89.518798 -178.775124   3.701708  -3.213430   5.660072  -3.523035  -1.006874  -7.488410  37.521335   0.025955  -0.001746 -17.739299  -3.536199   1.364622  -4.048293   0.003175   0.001174 -16.215131  -4.682364   3.680848  22.005940  -0.013459   0.004330  -3.013478   5.322476   1.469158   0.043389   0.002363  -0.000721
 -2.505714   0.895712   4.047060 -175.450470 -46.091366 -175.625850   4.196725   4.552126   0.436517   3.870525   4.049897   3.404001   0.769462  -0.603614   1.242605   0.426611   4.744215   0.255948  -6.910789  15.482136  49.359338 -179.976231  86.825250 179.952267   2.150153   4.930584 -10.978262   8.778604   6.364534   3.263189  27.326988  -5.753579 -45.818192 -179.325048 -89.148555 -179.319624   3.669252  -3.376994   5.899708  -4.388586  -0.843664  -8.411422  39.287855   0.025369  -0.002058 -17.475384  -3.652198   1.432465  -3.474743   0.004001   0.000783 -15.701878  -4.500298   2.742167  21.230517  -0.013033   0.002986  -2.752606   5.258714   1.514341   0.200056   0.002264  -0.000589
 -2.510051   0.896032   4.048145 -175.627141 -46.405089 -174.928564   4.052761   4.354407   0.165660   3.761617   3.887685   3.093385   0.730738  -0.446692   1.022751   0.813326   4.433512   0.170180  -5.660981  15.106475  49.785068 -179.917139  87.583297 179.892036   2.264268   5.088357 -11.159383   8.512111   6.051704   3.200838  26.051196  -5.980197 -45.953525 -179.490757 -88.558282 -179.485322   3.563745  -3.172180   6.088509  -5.726274  -0.707198  -9.509511  41.607776   0.026132  -0.002964 -17.142036  -3.864968   1.367991  -3.233752   0.004152   0.000307 -15.373860  -4.402125   1.605601  20.330355  -0.013089   0.001942  -2.374683   5.210027   1.619104   0.344879   0.002093  -0.000482
 -2.514087   0.896166   4.049214 -175.752178 -46.799433 -174.197663   3.960230   4.115880  -0.112454   3.676004   3.667466   2.750167   0.691098  -0.291707   0.798657   1.260152   4.099913   0.104941  -4.406255  14.730295  50.185896 -179.809202  88.335467 179.783352   2.340457   5.045977 -11.189668   8.172778   5.683217   3.095244  24.763105  -6.248099 -46.103449 -179.589775 -87.964065 -179.584524   3.477869  -3.169168   6.465664  -7.057851  -0.541033 -10.550918  43.843717   0.026395  -0.002127 -16.825842  -4.067085   1.307776  -3.007379   0.004129   0.000110 -15.056033  -4.355779   0.476232  19.457771  -0.012943   0.000689  -1.989053   5.107663   1.712598   0.476731   0.001929  -0.000395
 -2.517860   0.896150   4.050205 -175.821511 -47.199972 -173.451740   3.906090   3.848897  -0.395138   3.621606   3.407864   2.403373   0.656809  -0.145097   0.584264   1.715096   3.765791   0.064293  -3.197482  14.372750  50.571464 -179.582582  89.055421 179.556536   2.391115   4.884675 -11.136634   7.820795   5.294056   2.962280  23.521460  -6.529675 -46.260341 -179.667930 -87.394447 -179.662899   3.406788  -3.283862   6.871560  -8.357515  -0.347638 -11.514857  45.925957   0.025522  -0.001011 -16.530944  -4.255905   1.251979  -2.800456   0.003932   0.000008 -14.737638  -4.330260  -0.610076  18.646567  -0.012493  -0.000396  -1.628098   4.987481   1.794921   0.597676   0.001767  -0.000325
 -2.521403   0.896013   4.051101 -175.840536 -47.575936 -172.697520   3.881355   3.563612  -0.679530   3.593178   3.126120   2.061303   0.628183  -0.008119   0.381464   2.159809   3.438539   0.040660  -2.049020  14.037756  50.941335 -178.370448  89.735830 178.344730   2.428551   4.669943 -11.048879   7.476514   4.903959   2.816411  22.343919  -6.809549 -46.419143 -179.731788 -86.856596 -179.726973   3.344636  -3.450265   7.252735  -9.622683  -0.135570 -12.401585  47.851175   0.023574  -0.000138 -16.256673  -4.432295   1.200288  -2.612350   0.003606  -0.000073 -14.414447  -4.312394  -1.646440  17.900344  -0.011808  -0.001195  -1.300135   4.867653   1.867627   0.708569   0.001608  -0.000267
 -2.524745   0.895784   4.051893 -175.814855 -47.918226 -171.938550   3.877764   3.267282  -0.961770   3.584500   2.832661   1.727640   0.604668   0.119357   0.190156   2.586890   3.120386   0.027297  -0.964441  13.724986  51.293782  -1.155780  89.624394   1.130816   2.458971   4.433387 -10.949963   7.147630   4.523360   2.666699  21.235287  -7.079765 -46.576554 -179.783819 -86.352041 -179.779210   3.288239  -3.635767   7.598958 -10.850467   0.088493 -13.213404  49.627896   0.020855   0.000476 -16.001738  -4.597104   1.152460  -2.441571   0.003200  -0.000150 -14.084646  -4.297657  -2.633213  17.214642  -0.010980  -0.001726  -1.005826   4.754747   1.933064   0.624411   0.001148  -0.000208
 -2.527910   0.895483   4.052578 -175.749906 -48.226354 -171.177446   3.888044   2.965507  -1.238286   3.589785   2.534293   1.404547   0.585513   0.237831   0.009941   2.993278   2.812128   0.019459   0.056572  13.433068  51.627715  -0.425201  89.025015   0.401302   2.485333   4.189877 -10.851563   6.837063   4.157792   2.518322  20.195482  -7.336471 -46.730655 -179.825910 -85.880158 -179.821503   3.235910  -3.825239   7.911761 -12.037489   0.319444 -13.953300  51.267286   0.017701   0.000930 -15.764789  -4.751061   1.108270  -2.286637   0.002755  -0.000216 -13.748082  -4.285005  -3.572755  16.583331  -0.010085  -0.002043  -0.742890   4.650358   1.991090   0.550788   0.000804  -0.000163
 -2.530629   0.895151   4.053180 -175.771432 -48.759107 -170.581009   3.859664   2.568257  -1.430402   3.556509   2.301082   1.048445   0.542458   0.302169  -0.184438   3.389210   2.414460  -0.138277   1.416466  13.046988  51.985747  -0.307324  88.636407   0.286025   2.556435   4.030839 -10.870147   6.519116   3.819697   2.346924  18.814409  -7.618006 -47.021839 -179.831936 -85.186915 -179.828864   3.142133  -3.717498   8.129057 -13.189152   0.520137 -14.513005  52.662872   0.015975   0.003960 -15.614002  -4.872900   0.961165  -2.291179   0.002195  -0.000179 -13.581427  -4.461826  -4.423213  16.014517  -0.009073  -0.002512  -0.454138   4.488837   1.991687   0.477857   0.000515  -0.000127
 -2.532999   0.894781   4.053662 -175.780983 -49.322054 -170.004409   3.848705   2.169118  -1.638481   3.532111   2.042158   0.676952   0.503921   0.367021  -0.371816   3.812304   1.994820  -0.298323   2.743115  12.671709  52.322127  -0.241324  88.269528   0.222472   2.625417   3.865263 -10.801695   6.172294   3.476035   2.159844  17.469598  -7.904986 -47.322811 -179.843624 -84.503346 -179.842091   3.071319  -3.781053   8.468758 -14.293336   0.735244 -14.994279  53.935937   0.014496   0.006891 -15.476221  -4.985633   0.823645  -2.306176   0.001731  -0.000179 -13.435326  -4.662960  -5.224781  15.460340  -0.008120  -0.002978  -0.161724   4.303346   1.995987   0.416096   0.000318  -0.000099
